<svg xmlns="http://www.w3.org/2000/svg" width="234.684" height="118.688" viewBox="0 0 234.684 118.688">
  <defs>
    <style>
      .cls-1 {
        stroke: #000;
        stroke-width: 2px;
        fill-rule: evenodd;
      }
    </style>
  </defs>
  <path class="cls-1" d="M911.646,691.354l0.708-.708,116,116-0.7.708Zm0,0,0.708-.708,116,116-0.7.708Zm0-.708,0.708,0.708-116,116-0.708-.708Zm0,0.708,0.708-.708,116,116-0.7.708Zm0,0,0.708-.708,116,116-0.7.708Zm0-.708,0.708,0.708-116,116-0.708-.708Zm0,0,0.708,0.708-116,116-0.708-.708Z" transform="translate(-794.656 -689.656)"/>
</svg>
