<svg id="Capa_1" enable-background="new 0 0 512 512" height="512" viewBox="0 0 512 512" width="512" xmlns="http://www.w3.org/2000/svg"><path d="m218 295.782c4.142 0 7.5-3.357 7.5-7.5v-158.221c0-17.778 3.147-35.172 9.354-51.7l21.146-56.313 8.836 23.53c1.456 3.879 5.78 5.843 9.658 4.385 3.877-1.456 5.841-5.78 4.384-9.658l-12.372-32.949c-1.679-4.467-5.802-7.355-10.506-7.356-4.703 0-8.827 2.888-10.507 7.357l-24.682 65.729c-6.842 18.22-10.312 37.389-10.312 56.974v158.222c.001 4.143 3.359 7.5 7.501 7.5z"/><path d="m313 326.39h-11.5v-196.329c0-33.286-10.972-58.381-11.377-59.813-1.456-3.878-5.78-5.843-9.657-4.386-3.878 1.456-5.841 5.779-4.386 9.657.586 2.068 10.42 23.478 10.42 54.542v196.329h-23v-246.39c0-4.143-3.358-7.5-7.5-7.5s-7.5 3.357-7.5 7.5v246.39h-23v-5.8c0-4.143-3.358-7.5-7.5-7.5s-7.5 3.357-7.5 7.5v5.8h-11.5c-12.407 0-22.5 10.094-22.5 22.5s10.093 22.5 22.5 22.5h19.5v89.24c0 2.277.366 4.469 1.029 6.528-11.174 1.305-19.875 10.824-19.875 22.342 0 12.406 10.093 22.5 22.5 22.5h33.846c4.142 0 7.5-3.357 7.5-7.5s-3.358-7.5-7.5-7.5h-33.846c-4.136 0-7.5-3.364-7.5-7.5s3.364-7.5 7.5-7.5h67.692c4.136 0 7.5 3.364 7.5 7.5s-3.364 7.5-7.5 7.5h-1.821c-4.142 0-7.5 3.357-7.5 7.5s3.358 7.5 7.5 7.5h1.821c12.407 0 22.5-10.094 22.5-22.5 0-11.518-8.701-21.037-19.875-22.342.663-2.06 1.029-4.251 1.029-6.528v-89.24h19.5c12.407 0 22.5-10.094 22.5-22.5s-10.093-22.5-22.5-22.5zm-34.5 134.24c0 3.513-2.857 6.37-6.37 6.37h-32.26c-3.513 0-6.37-2.857-6.37-6.37v-89.24h45zm34.5-104.24h-114c-4.136 0-7.5-3.364-7.5-7.5s3.364-7.5 7.5-7.5h114c4.136 0 7.5 3.364 7.5 7.5s-3.364 7.5-7.5 7.5z"/></svg>