<svg id="Capa_1" enable-background="new 0 0 512 512" height="512" viewBox="0 0 512 512" width="512" xmlns="http://www.w3.org/2000/svg"><path d="m142.449 339.412c-7.67-29.972-8.544-64.043-2.398-93.479 1.028-4.928 2.17-10.233 3.378-15.847 14.003-65.057 35.165-163.371-.663-207.73-11.98-14.835-29.263-22.356-51.367-22.356-20.619 0-36.154 5.617-46.173 16.694-7.633 8.439-10.204 18.153-11.012 24.875h-11.729c-12.399 0-22.485 10.087-22.485 22.515 0 8.462 4.698 15.847 11.623 19.683-4.149 5.336-6.623 12.035-6.623 19.302v24.905c0 4.143 3.358 7.5 7.5 7.5s7.5-3.357 7.5-7.5v-24.905c0-9.098 7.402-16.5 16.5-16.5h12c9.098 0 16.5 7.402 16.5 16.5v347.431c0 9.099-7.402 16.5-16.5 16.5h-12c-9.098 0-16.5-7.401-16.5-16.5v-290.525c0-4.143-3.358-7.5-7.5-7.5s-7.5 3.357-7.5 7.5v290.525c0 7.267 2.474 13.967 6.624 19.303-6.925 3.838-11.624 11.23-11.624 19.712 0 12.398 10.086 22.485 22.485 22.485h40.03c12.398 0 22.485-10.087 22.485-22.515 0-8.462-4.698-15.846-11.623-19.683 4.149-5.335 6.623-12.035 6.623-19.302v-347.431c0-7.267-2.474-13.967-6.624-19.303 6.925-3.838 11.624-11.23 11.624-19.712 0-12.397-10.087-22.484-22.485-22.484h-13.158c.749-4.293 2.586-9.941 6.993-14.813 7.056-7.802 18.848-11.757 35.049-11.757 17.593 0 30.578 5.489 39.698 16.78 31.325 38.784 10.256 136.667-2.332 195.149-1.215 5.646-2.364 10.982-3.398 15.938-6.599 31.603-5.669 68.147 2.55 100.264.867 3.39 3.916 5.643 7.26 5.643.615 0 1.241-.076 1.865-.236 4.014-1.027 6.435-5.113 5.407-9.126zm-79.934 157.588h-40.03c-4.127 0-7.485-3.358-7.485-7.515 0-4.127 3.358-7.485 7.485-7.485h40.03c4.127 0 7.485 3.358 7.485 7.515 0 4.127-3.358 7.485-7.485 7.485zm7.485-432.916c0 4.127-3.358 7.485-7.485 7.485h-40.03c-4.127 0-7.485-3.358-7.485-7.516 0-4.127 3.358-7.484 7.485-7.484h18.731c.133.003.267.004.402 0h20.897c4.127 0 7.485 3.358 7.485 7.515z"/><path d="m504.552 286.844-36.464-13.618c-2.481-10.196-6.521-19.983-12.023-29.005-2.157-3.537-6.772-4.654-10.309-2.498-3.536 2.157-4.655 6.772-2.498 10.309 8.334 13.665 12.739 29.396 12.739 45.492 0 48.248-39.252 87.5-87.5 87.5s-87.5-39.252-87.5-87.5 39.252-87.5 87.5-87.5c20.192 0 39.892 7.041 55.47 19.826 3.202 2.627 7.928 2.162 10.556-1.04 2.628-3.201 2.163-7.928-1.04-10.556-11.904-9.77-25.861-16.677-40.692-20.3l-13.617-36.477c-1.689-4.525-5.879-7.45-10.676-7.45 0 0 0 0-.001 0-4.796 0-8.987 2.924-10.676 7.449l-13.608 36.453c-37.044 9.034-66.267 38.254-75.305 75.296l-36.462 13.618c-4.526 1.689-7.45 5.88-7.45 10.677 0 4.796 2.924 8.986 7.449 10.676l36.461 13.618c2.282 9.354 5.851 18.21 10.508 26.368l-17.798 24.317c-5.531 7.556-4.741 17.845 1.879 24.464l1.105 1.105c-8.836 5.436-25.326 11.598-55.348 12.908-29.354 1.266-46.985-22.583-56.6-42.827-1.777-3.741-6.25-5.332-9.993-3.557-3.741 1.776-5.334 6.25-3.557 9.992 14.238 29.978 37.931 52.814 70.803 51.378 34.878-1.522 54.529-9.36 65.524-17.069 3.642 3.516 8.343 5.313 13.077 5.313 3.879 0 7.782-1.207 11.142-3.665l26.737-19.573c5.684 2.572 11.643 4.639 17.819 6.146l13.616 36.458c1.689 4.525 5.88 7.449 10.677 7.449 4.796 0 8.987-2.925 10.675-7.448l13.617-36.459c37.043-9.036 66.264-38.258 75.299-75.301l36.461-13.618c4.525-1.689 7.449-5.88 7.449-10.676.002-4.795-2.922-8.986-7.446-10.675zm-136.054-111.076 7.286 19.517c-2.42-.173-4.85-.261-7.286-.261-2.449 0-4.878.086-7.284.256zm-121.766 121.753 19.523-7.292c-.17 2.41-.257 4.842-.257 7.294 0 2.45.087 4.88.257 7.288zm44.058 100.917c-1.54 1.125-3.641.963-4.988-.38l-11.7-11.701c-1.352-1.352-1.512-3.452-.381-4.997l14.638-19.999c6.677 8.365 14.634 15.665 23.571 21.602zm77.708 20.848-7.29-19.52c2.408.17 4.839.257 7.29.257s4.882-.087 7.29-.257zm102.243-114.475c.17-2.407.257-4.838.257-7.288 0-2.44-.087-4.874-.259-7.296l19.526 7.292z"/><path d="m334.999 297.523c0 18.472 15.028 33.5 33.5 33.5s33.5-15.028 33.5-33.5-15.028-33.5-33.5-33.5c-18.473 0-33.5 15.029-33.5 33.5zm51.999 0c0 10.201-8.299 18.5-18.5 18.5s-18.5-8.299-18.5-18.5 8.299-18.5 18.5-18.5 18.5 8.299 18.5 18.5z"/></svg>