<svg id="Capa_1" enable-background="new 0 0 512 512" height="512" viewBox="0 0 512 512" width="512" xmlns="http://www.w3.org/2000/svg"><path d="m383.495 345.909c-.315-17.043-14.444-30.909-31.495-30.909-11.667 0-22.325 6.406-27.815 16.717-.33.621-1.005 1.283-1.908 1.283h-17.227l15.112-254.715c.17-2.839-.712-5.628-2.486-7.855l-52.683-66.098c-2.195-2.753-5.472-4.332-8.993-4.332s-6.798 1.579-8.993 4.332l-52.683 66.097c-1.774 2.226-2.658 5.016-2.488 7.852l2.431 40.971c.246 4.135 3.79 7.281 7.931 7.042 4.135-.245 7.288-3.796 7.042-7.931l-2.35-39.633 41.61-52.205v306.475h-26.524l-10.839-182.69c-.245-4.134-3.779-7.274-7.931-7.042-4.135.245-7.288 3.796-7.043 7.931l10.786 181.801h-17.226c-.903 0-1.578-.663-1.908-1.283-5.49-10.311-16.148-16.717-27.815-16.717-17.051 0-31.179 13.866-31.494 30.909-.332 17.86 14.615 32.091 32.035 32.091h57.959v37.564c0 4.142 3.358 7.5 7.5 7.5s7.5-3.358 7.5-7.5v-37.564h45v82.63c0 3.513-2.857 6.37-6.37 6.37h-32.26c-3.513 0-6.37-2.857-6.37-6.37v-12.656c0-4.142-3.358-7.5-7.5-7.5s-7.5 3.358-7.5 7.5v12.656c0 4.196 1.216 8.113 3.313 11.419-5.07 4.129-8.314 10.418-8.314 17.451 0 12.407 10.093 22.5 22.5 22.5h40c12.407 0 22.5-10.093 22.5-22.5 0-7.033-3.244-13.322-8.314-17.451 2.098-3.305 3.313-7.223 3.313-11.419v-82.63h6.423c4.142 0 7.5-3.358 7.5-7.5s-3.358-7.5-7.5-7.5h-139.38c-9.139 0-17.212-7.464-17.039-16.813.166-8.926 7.566-16.187 16.498-16.187 6.111 0 11.696 3.359 14.575 8.767 3.032 5.695 8.837 9.233 15.148 9.233h132.554c6.312 0 12.116-3.538 15.148-9.234 2.88-5.407 8.464-8.766 14.575-8.766 8.931 0 16.332 7.261 16.497 16.187.173 9.348-7.896 16.813-17.039 16.813h-11.458c-4.142 0-7.5 3.358-7.5 7.5s3.358 7.5 7.5 7.5h11.459c17.428 0 32.367-14.238 32.036-32.091zm-107.495 151.091h-40c-4.136 0-7.5-3.364-7.5-7.5s3.364-7.5 7.5-7.5h40c4.136 0 7.5 3.364 7.5 7.5s-3.364 7.5-7.5 7.5zm-12.5-164v-306.475l41.61 52.205-15.086 254.27z"/></svg>